<svg width="12" height="13" viewBox="0 0 12 13" fill="none" xmlns="http://www.w3.org/2000/svg">
<path d="M5.99667 12.9729C4.35758 12.9729 4.16435 12.9643 3.52471 12.9363C3.0259 12.9199 2.53355 12.8187 2.06885 12.6369C1.26484 12.3245 0.629077 11.6894 0.316491 10.8864C0.141459 10.4207 0.0470524 9.92865 0.0373126 9.43132C0 8.79392 0 8.58501 0 6.96092C0 5.31954 0.00866185 5.12792 0.0373126 4.49253C0.0472655 3.99587 0.141669 3.50451 0.316491 3.03943C0.628738 2.2354 1.26553 1.59976 2.07085 1.28827C2.53635 1.11276 3.02855 1.01824 3.52604 1.00883C4.16235 0.9729 4.37157 0.9729 5.99667 0.9729C7.64908 0.9729 7.83898 0.98155 8.46863 1.00883C8.96741 1.01832 9.46091 1.11283 9.92782 1.28827C10.7329 1.60011 11.3696 2.23563 11.6822 3.03943C11.8602 3.51129 11.9551 4.01033 11.9627 4.51448C12 5.15188 12 5.36013 12 6.98355C12 8.60697 11.9907 8.81987 11.9627 9.44995C11.9528 9.94775 11.8581 10.4402 11.6828 10.9064C11.3695 11.7099 10.7327 12.3452 9.92782 12.6575C9.46157 12.832 8.96909 12.9262 8.47129 12.9363C7.83498 12.9729 7.62643 12.9729 5.99667 12.9729ZM5.97401 2.02613C4.34425 2.02613 4.17501 2.03411 3.5387 2.06272C3.1589 2.06774 2.78277 2.13773 2.42665 2.26964C1.90078 2.47058 1.48466 2.88441 1.28129 3.4087C1.14817 3.76818 1.07807 4.14787 1.07407 4.53112C1.03876 5.17583 1.03876 5.34482 1.03876 6.96092C1.03876 8.55773 1.04475 8.75134 1.07407 9.39206C1.08003 9.77144 1.15009 10.1471 1.28129 10.5032C1.48496 11.0271 1.90101 11.4406 2.42665 11.6416C2.78253 11.7743 3.15881 11.8444 3.5387 11.8485C4.18368 11.8857 4.35358 11.8857 5.97401 11.8857C7.60844 11.8857 7.77768 11.8778 8.40866 11.8485C8.78872 11.8439 9.16513 11.7739 9.52138 11.6416C10.0441 11.4389 10.4575 11.0263 10.6607 10.5045C10.7936 10.1447 10.8637 9.76485 10.868 9.38142H10.8753C10.9039 8.74535 10.9039 8.57569 10.9039 6.95028C10.9039 5.32486 10.8966 5.15387 10.868 4.51848C10.862 4.13953 10.7919 3.76432 10.6607 3.4087C10.4579 2.88612 10.0445 2.47276 9.52138 2.26964C9.16521 2.13707 8.78874 2.06706 8.40866 2.06272C7.76435 2.02613 7.59578 2.02613 5.97401 2.02613ZM5.99667 10.0341C4.75069 10.0349 3.62693 9.2861 3.14949 8.13688C2.67205 6.98766 2.93497 5.6644 3.81563 4.78425C4.6963 3.9041 6.02123 3.64041 7.17252 4.11617C8.32381 4.59192 9.07469 5.71341 9.07496 6.9576C9.07312 8.65491 7.69643 10.0308 5.99667 10.0341ZM5.99667 4.96026C4.89271 4.96026 3.99778 5.8539 3.99778 6.95627C3.99778 8.05863 4.89271 8.95227 5.99667 8.95227C7.10062 8.95227 7.99556 8.05863 7.99556 6.95627C7.99299 5.85496 7.09956 4.96282 5.99667 4.96026ZM9.19489 4.48588C8.79873 4.48441 8.47856 4.16291 8.47929 3.76732C8.48003 3.37172 8.80139 3.05141 9.19756 3.05141C9.59372 3.05141 9.91509 3.37172 9.91582 3.76731C9.916 3.95817 9.84006 4.14125 9.70478 4.27608C9.5695 4.41091 9.38603 4.4864 9.19489 4.48588Z" fill="#222222"/>
</svg>
