<svg width="216" height="51" viewBox="0 0 216 51" fill="none" xmlns="http://www.w3.org/2000/svg">
<path d="M90.0235 34.966V35.3837C90.0235 40.1878 89.4389 45.5341 86.5728 45.5381C84.0674 45.5421 82.9969 42.385 82.9969 37.6934V12.6086C82.9969 8.36693 83.9991 5.48691 86.4628 5.48691C88.9112 5.48691 89.864 8.83288 89.864 13.0826V16.2398L96.5186 13.8739V13.3839C96.4654 7.31855 95.1899 0 86.5007 0C79.8993 0 76.2627 4.6233 76.2627 13.0183V37.1591C76.2627 43.9876 77.4661 50.9688 86.402 50.9688C95.5506 50.9688 96.7197 41.2 96.7197 34.7169V32.5921L90.0235 34.966Z" fill="black"/>
<path d="M6.61276 0.710938H0V50.2618H6.61276V0.710938Z" fill="black"/>
<path d="M18.7372 50.0891L18.6955 50.2618H12.1396V0.710938H18.3197V33.544L27.0241 0.879642L27.0696 0.710938H33.8836V50.2618H27.658V17.6135L18.7372 50.0891Z" fill="black"/>
<path d="M52.9513 34.966V35.3837C52.9513 40.1878 52.3667 45.5341 49.5007 45.5381C46.9953 45.5421 45.9248 42.385 45.9248 37.6934V12.6086C45.9248 8.36693 46.9269 5.48691 49.3906 5.48691C51.8391 5.48691 52.7919 8.83288 52.7919 13.0826V16.2398L59.4464 13.8739V13.3839C59.3932 7.31855 58.1178 0 49.4323 0C42.831 0 39.1943 4.6233 39.1943 13.0183V37.1591C39.1943 43.9876 40.3977 50.9688 49.3336 50.9688C58.4784 50.9688 59.6514 41.2 59.6514 34.7169V32.5921L52.9513 34.966Z" fill="black"/>
<path d="M116.198 13.3517V37.5367C116.198 42.3408 114.945 45.5381 112.011 45.5381C109.21 45.5381 107.851 42.2042 107.851 37.7054V13.3799C107.851 8.77664 109.168 5.48691 111.992 5.48691C114.862 5.48691 116.198 8.76861 116.198 13.3517ZM112.129 0C105.03 0 101.12 4.93661 101.12 13.898V36.9864C101.12 46.3977 104.59 50.9728 111.73 50.9728C119.269 50.9728 122.932 46.3616 122.932 36.878V13.9261C122.929 4.81611 119.193 0 112.129 0Z" fill="black"/>
<path d="M146.335 6.4509V0.710938H128.755V50.2618H135.368V28.4347L144.311 25.9885V19.3327L135.368 22.0079V6.4509H146.335Z" fill="black"/>
<path d="M169.362 6.4509V0.710938H151.778V50.2618H158.395V28.4347L167.335 25.9885V19.3327L158.395 22.0079V6.4509H169.362Z" fill="black"/>
<path d="M192.161 6.4509V0.710938H174.76V38.2918V44.5219V47.8799V50.2618H192.161V44.5219H181.373V44.1162V38.2918V28.1093L190.126 25.6631V19.0595L181.373 21.7347V6.4509H192.161Z" fill="black"/>
<path d="M215.211 6.4509V0.710938H197.81V38.2918V44.5219V47.8799V50.2618H215.211V44.5219H204.422V44.1162V38.2918V28.1093L213.176 25.6631V19.0595L204.422 21.7347V6.4509H215.211Z" fill="black"/>
</svg>
